<?xml version="1.0" standalone="no"?>
<!DOCTYPE svg PUBLIC "-//W3C//DTD SVG 20010904//EN"
 "http://www.w3.org/TR/2001/REC-SVG-20010904/DTD/svg10.dtd">
<svg version="1.0" xmlns="http://www.w3.org/2000/svg"
 width="1200.000000pt" height="1200.000000pt" viewBox="0 0 1200.000000 1200.000000"
 preserveAspectRatio="xMidYMid meet">

<g transform="translate(0.000000,1200.000000) scale(0.100000,-0.100000)"
fill="#000000" stroke="none">
<path d="M3145 10069 c-410 -42 -779 -265 -1002 -607 -96 -146 -159 -302 -200
-492 -17 -81 -18 -224 -18 -2950 0 -3160 -5 -2911 60 -3135 89 -307 317 -599
600 -767 202 -121 374 -172 635 -189 218 -15 2140 0 2140 16 0 7 7 18 15 25 8
7 12 16 9 21 -3 5 2 9 10 9 8 0 18 9 21 20 3 11 11 20 16 20 5 0 9 6 9 14 0 8
11 17 24 20 14 3 28 15 31 26 3 11 11 20 16 20 5 0 9 7 9 15 0 8 6 15 14 15 7
0 26 20 42 45 15 25 31 45 35 45 8 0 69 58 69 65 0 2 24 29 54 60 30 30 60 69
68 85 8 20 20 30 34 30 14 0 27 12 40 40 10 22 22 40 27 40 4 0 21 13 37 28
22 22 27 31 18 40 -9 9 -6 12 15 12 17 0 27 5 27 14 0 8 9 18 20 21 11 3 20
13 20 21 0 8 15 31 33 50 17 20 30 39 28 42 -3 4 8 9 25 12 24 4 30 10 32 37
2 24 9 33 29 38 30 7 52 32 53 58 0 9 5 17 11 17 21 0 79 72 67 82 -2 1 -455
5 -1008 8 -857 6 -1019 9 -1100 23 -439 74 -828 364 -1020 762 -63 129 -104
254 -127 385 -17 99 -18 203 -18 1800 0 1585 1 1701 18 1788 36 189 110 369
219 535 74 113 261 303 368 374 208 139 427 220 659 243 47 4 842 7 1766 6
1678 -2 1680 -2 1766 -23 497 -123 862 -440 1028 -892 83 -224 89 -292 90
-1016 1 -768 9 -1075 28 -1068 7 3 13 14 13 24 0 12 7 19 20 19 11 0 20 6 20
14 0 8 9 18 20 21 11 3 20 15 20 26 0 12 7 19 20 19 11 0 20 5 20 10 0 18 43
70 57 70 7 0 18 11 23 24 5 13 14 27 20 31 5 3 8 11 5 16 -4 5 1 9 11 9 20 0
43 28 44 51 0 10 12 20 27 24 30 7 52 31 53 58 0 9 7 17 15 17 8 0 12 6 9 14
-3 8 7 18 25 26 19 8 31 20 31 31 0 11 7 19 15 19 15 0 65 45 65 60 0 5 24 34
54 65 30 30 60 69 68 85 8 20 20 30 34 30 14 0 27 12 40 40 10 22 22 40 27 40
4 0 21 13 37 28 22 22 27 31 18 40 -9 9 -6 12 15 12 17 0 27 5 27 14 0 8 9 18
20 21 11 3 20 15 20 26 0 10 7 19 15 19 9 0 18 8 22 18 3 9 13 25 21 35 8 9
11 18 6 18 -5 1 5 4 21 8 25 5 31 12 33 39 2 17 7 32 13 32 5 0 9 7 9 16 0 14
3 14 16 3 13 -10 17 -10 25 2 5 8 10 287 11 639 4 894 1 1076 -18 1189 -85
500 -482 937 -969 1066 -194 52 15 48 -3035 51 -1554 1 -2861 -2 -2905 -7z"/>
<path d="M4345 8584 c-81 -10 -174 -28 -220 -44 -140 -49 -282 -133 -388 -230
-127 -116 -249 -320 -298 -500 l-24 -85 -3 -1640 c-2 -1114 0 -1674 7 -1745
14 -137 39 -221 100 -346 162 -327 454 -533 816 -575 59 -7 478 -9 1210 -7
1220 3 1132 -1 1196 59 22 19 26 28 17 37 -9 9 -6 12 15 12 15 0 27 5 27 10 0
18 43 70 57 70 7 0 18 11 23 24 5 13 14 27 20 31 5 3 8 11 5 16 -4 5 1 9 11 9
20 0 43 28 44 51 0 10 12 20 27 24 30 7 52 31 53 58 0 9 5 17 11 17 15 0 69
59 69 76 0 8 7 14 15 14 18 0 65 47 65 65 0 8 9 15 20 15 11 0 20 6 20 13 0
26 25 67 41 67 9 0 24 18 35 40 13 27 25 40 40 40 14 0 27 12 40 40 10 22 25
40 32 40 6 0 12 6 12 14 0 8 9 18 20 21 11 3 20 15 20 26 0 12 7 19 20 19 11
0 20 6 20 14 0 8 9 18 20 21 11 3 20 15 20 26 0 10 7 19 15 19 9 0 18 8 22 18
3 9 13 25 21 35 8 9 11 18 6 18 -5 1 5 4 21 8 25 5 31 12 33 38 2 24 9 33 29
38 30 7 52 31 53 56 0 9 11 20 24 23 14 3 28 15 31 26 3 11 11 20 16 20 5 0 9
7 9 15 0 8 6 15 14 15 7 0 26 20 42 45 15 25 31 45 35 45 8 0 69 58 69 65 0 2
18 23 40 45 22 22 40 46 40 51 0 6 11 20 25 31 14 11 25 26 25 34 0 8 10 14
23 14 18 0 29 10 43 40 10 22 22 40 27 40 4 0 21 13 37 28 22 22 27 31 18 40
-9 9 -6 12 15 12 17 0 27 5 27 14 0 8 9 18 20 21 11 3 20 13 20 21 0 8 13 29
29 47 16 17 29 36 28 42 -1 5 12 12 28 15 25 4 31 10 33 37 3 26 9 33 32 38
30 7 35 14 57 85 20 63 32 2010 13 2156 -22 180 -68 304 -167 452 -139 209
-352 361 -603 431 l-95 26 -1670 1 c-918 1 -1683 0 -1700 -2z m3616 -430 c71
-20 149 -86 186 -158 23 -44 27 -63 28 -141 0 -79 -3 -96 -27 -141 -97 -184
-339 -231 -490 -96 -27 25 -61 68 -76 96 -23 44 -27 63 -27 141 0 75 4 97 23
133 80 150 221 211 383 166z m-1605 -273 c207 -36 495 -150 678 -271 363 -238
648 -602 774 -990 70 -214 91 -338 99 -560 10 -291 -28 -516 -132 -780 -54
-137 -144 -309 -167 -318 -4 -2 -8 -9 -8 -14 0 -6 -35 -57 -77 -112 -118 -155
-329 -354 -461 -432 -46 -28 -157 -92 -198 -115 -17 -9 -82 -38 -145 -63 -419
-167 -900 -179 -1333 -35 -395 132 -748 405 -987 761 -109 163 -230 454 -268
646 -60 297 -50 651 25 912 150 520 506 956 970 1189 209 105 376 160 559 185
61 9 121 17 135 20 63 11 429 -4 536 -23z"/>
<path d="M5805 7484 c-180 -27 -304 -67 -480 -154 -169 -84 -246 -140 -390
-284 -200 -200 -333 -442 -395 -717 -139 -620 136 -1269 680 -1605 124 -77
254 -132 420 -176 105 -28 133 -31 309 -36 208 -5 284 3 436 43 609 163 1054
697 1105 1324 29 358 -73 722 -279 996 -97 130 -175 209 -316 324 -84 68 -263
162 -399 210 -171 60 -252 74 -466 77 -107 1 -208 0 -225 -2z"/>
</g>
</svg>
