<?xml version="1.0" standalone="no"?>
<!DOCTYPE svg PUBLIC "-//W3C//DTD SVG 20010904//EN"
 "http://www.w3.org/TR/2001/REC-SVG-20010904/DTD/svg10.dtd">
<svg version="1.0" xmlns="http://www.w3.org/2000/svg"
 width="1200.000000pt" height="1200.000000pt" viewBox="0 0 1200.000000 1200.000000"
 preserveAspectRatio="xMidYMid meet">

<g transform="translate(0.000000,1200.000000) scale(0.100000,-0.100000)"
fill="#000000" stroke="none">
<path d="M3990 9354 c-314 -6 -886 -25 -1045 -35 -427 -26 -781 -96 -967 -190
-206 -104 -326 -238 -458 -512 -188 -391 -260 -761 -302 -1547 -19 -367 -16
-1816 5 -2190 54 -954 162 -1438 393 -1766 191 -271 512 -430 918 -454 355
-22 1198 -30 3046 -30 1944 0 3137 10 3559 30 789 37 1004 97 1169 328 335
469 422 752 474 1552 16 243 14 2728 -2 3030 -33 595 -122 915 -329 1172 -211
263 -550 426 -1065 513 -272 46 -517 62 -1316 86 -317 10 -3666 20 -4080 13z
m1595 -2042 c394 -252 1938 -1267 1974 -1298 14 -12 -645 -478 -1294 -916
-382 -257 -1013 -664 -1019 -657 -2 2 -6 670 -10 1484 -3 814 -9 1511 -13
1549 l-6 70 39 -24 c21 -13 170 -107 329 -208z"/>
</g>
</svg>
